<svg version="1.1" id="Layer_1" xmlns="http://www.w3.org/2000/svg" xmlns:xlink="http://www.w3.org/1999/xlink" x="0px" y="0px"
	 width="100%" viewBox="0 0 225 225" enable-background="new 0 0 225 225" xml:space="preserve">
<path fill="#FEFEFE" opacity="1.000000" stroke="none" 
	d="
M123.000000,226.000000 
	C82.000000,226.000000 41.500004,226.000000 1.000005,226.000000 
	C1.000004,151.000000 1.000004,76.000015 1.000002,1.000015 
	C75.999992,1.000010 150.999985,1.000010 225.999969,1.000005 
	C225.999985,75.999985 225.999985,150.999969 226.000000,225.999969 
	C191.833328,226.000000 157.666672,226.000000 123.000000,226.000000 
M69.932068,126.044235 
	C69.932068,126.044235 69.833702,126.038658 69.852402,126.679901 
	C70.180092,127.183464 70.507782,127.687027 70.852386,128.054443 
	C70.852386,128.054443 70.770782,128.164719 70.907509,128.856110 
	C81.792191,149.704865 104.512100,161.272614 127.746841,156.825623 
	C146.220169,153.289932 159.842651,142.912231 167.147308,125.057373 
	C167.147308,125.057373 167.160858,125.185654 167.708893,124.899590 
	C168.035202,123.931099 168.361526,122.962608 169.015320,121.281616 
	C178.854828,91.466164 163.407913,61.316223 133.597076,52.425854 
	C128.756317,50.982216 124.235077,49.897022 121.602150,44.654793 
	C120.686699,42.832108 116.735298,41.312012 114.534683,41.703087 
	C112.362930,42.089031 110.116631,44.774734 108.903976,46.997562 
	C107.892387,48.851833 108.156540,51.496784 108.163086,53.790676 
	C108.174301,57.715942 106.473495,60.426605 103.019478,62.185593 
	C97.681557,64.903976 94.614098,64.098541 88.578827,58.293434 
	C82.047089,52.010792 72.985031,53.108856 68.871429,60.805367 
	C66.081490,66.025330 67.718246,70.655220 70.972191,75.169258 
	C77.799225,84.640076 74.707390,92.748421 63.517792,95.049507 
	C60.119629,95.748322 56.814938,96.723007 56.099888,100.644562 
	C55.369915,104.647957 57.515274,107.378304 60.449013,110.057838 
	C62.994560,112.382828 64.798790,115.584221 66.661446,118.566437 
	C67.683289,120.202454 68.148453,122.186180 68.922768,124.639977 
	C69.249077,125.139297 69.575378,125.638626 69.932068,126.044235 
M62.526001,88.419289 
	C67.824348,87.969093 70.237244,85.991615 69.876175,81.904564 
	C69.522842,77.905014 67.351685,75.582390 62.262268,75.982468 
	C58.957527,76.754738 56.628109,79.007584 57.324535,82.178612 
	C57.803944,84.361496 60.379967,86.083908 62.526001,88.419289 
M94.433762,57.564342 
	C97.161469,57.215660 101.632072,57.667953 102.240013,56.345097 
	C103.370621,53.884964 102.885246,50.116863 101.744080,47.464947 
	C101.306778,46.448723 97.231529,46.997974 94.110405,47.108456 
	C91.084435,50.377880 90.118568,53.672688 94.433762,57.564342 
M159.901932,180.893738 
	C159.964355,184.935684 160.026794,188.977646 160.194870,193.759033 
	C161.420044,193.515259 162.645203,193.271484 164.037140,192.186142 
	C163.996979,190.385986 163.728241,188.969727 166.573929,188.626083 
	C168.471039,188.396988 171.005280,186.398376 171.592010,184.637726 
	C172.045013,183.278366 169.915527,181.058380 168.099335,178.920563 
	C165.429291,179.273956 162.759262,179.627335 159.901932,180.893738 
M143.621872,184.779404 
	C143.621872,183.124023 143.621872,181.468658 143.621872,179.734863 
	C140.674347,178.695953 139.266541,179.535736 139.589554,182.872467 
	C139.748352,184.512619 139.632095,186.180740 139.617630,187.836029 
	C139.583466,191.746384 141.227585,194.028641 145.384552,194.378204 
	C149.770538,194.747025 152.298874,192.727463 152.813400,188.597916 
	C153.209396,185.419800 152.892319,182.152847 152.892319,178.712585 
	C147.056549,179.156998 149.567169,183.246796 148.772034,185.743256 
	C148.206406,187.519089 147.064835,189.111465 146.180298,190.785706 
	C145.327560,189.094330 144.474808,187.402954 143.621872,184.779404 
M96.648338,191.727646 
	C94.962982,187.450562 93.277634,183.173462 91.611839,178.945984 
	C86.850449,179.979813 82.241119,189.134705 83.961555,194.355774 
	C87.240036,192.050018 90.642830,189.901428 94.095787,194.002090 
	C94.229820,194.161270 95.963722,192.973282 96.648338,191.727646 
M68.321922,194.057098 
	C71.606972,194.747696 74.701553,194.576736 75.938759,190.849899 
	C77.860062,185.062332 71.292389,185.576477 68.864456,182.338791 
	C71.336906,182.087006 73.243454,181.892853 75.967918,181.615402 
	C72.374069,178.138428 68.615944,176.723785 66.231384,180.256271 
	C62.102570,186.372742 70.099365,186.388962 72.708008,190.097229 
	C71.151665,190.357452 70.235802,190.635895 69.320442,190.634262 
	C67.948540,190.631821 66.577003,190.432724 65.205307,190.317261 
	C66.003113,191.495880 66.800919,192.674500 68.321922,194.057098 
M108.503281,185.662628 
	C108.223579,186.256958 107.943886,186.851273 107.656555,187.461823 
	C104.859360,185.339859 107.050362,178.998688 100.238800,179.323578 
	C102.013023,184.200119 103.399818,188.555145 105.293556,192.677307 
	C105.605995,193.357407 109.268784,193.522888 109.471893,193.069641 
	C111.431549,188.696747 112.981972,184.140442 114.763931,179.327255 
	C109.469749,178.796982 109.658165,182.373154 108.503281,185.662628 
M128.641861,182.138626 
	C129.846878,181.721970 131.051895,181.305313 132.256927,180.888672 
	C132.164871,180.503250 132.072830,180.117844 131.980789,179.732422 
	C128.418839,179.732422 124.856880,179.732422 121.329926,179.732422 
	C121.329926,184.266602 121.329926,189.024353 121.329926,193.833618 
	C125.304665,193.833618 129.033569,193.833618 133.209442,193.833618 
	C131.740463,188.618393 128.307251,191.583847 125.616859,191.389069 
	C125.510712,190.385086 125.400543,189.343094 125.290855,188.305634 
	C127.447464,188.044769 129.248978,187.826859 131.050491,187.608948 
	C131.042786,187.185898 131.035080,186.762863 131.027374,186.339813 
	C129.221466,186.094772 127.415565,185.849747 125.609657,185.604706 
	C125.333534,185.240219 125.057411,184.875732 124.781288,184.511246 
	C125.781654,183.721100 126.782028,182.930969 128.641861,182.138626 
M66.637825,45.907196 
	C65.159180,47.034729 63.680534,48.162262 62.201885,49.289791 
	C63.172256,50.511520 64.307152,52.839241 65.078720,52.724468 
	C66.679222,52.486378 68.625565,51.235752 69.362923,49.838455 
	C69.776627,49.054474 68.059097,47.145832 66.637825,45.907196 
M114.546669,27.189627 
	C112.924255,27.339653 110.652222,26.907156 109.854538,27.796724 
	C108.984505,28.766985 108.953064,31.199259 109.557037,32.544960 
	C109.999130,33.529987 112.058685,33.789066 113.397308,34.371712 
	C113.951332,32.139668 114.505363,29.907623 114.546669,27.189627 
z"/>
<path fill="#08AAE2" opacity="1.000000" stroke="none" 
	d="
M68.864624,124.013123 
	C68.148453,122.186180 67.683289,120.202454 66.661446,118.566437 
	C64.798790,115.584221 62.994560,112.382828 60.449013,110.057838 
	C57.515274,107.378304 55.369915,104.647957 56.099888,100.644562 
	C56.814938,96.723007 60.119629,95.748322 63.517792,95.049507 
	C74.707390,92.748421 77.799225,84.640076 70.972191,75.169258 
	C67.718246,70.655220 66.081490,66.025330 68.871429,60.805367 
	C72.985031,53.108856 82.047089,52.010792 88.578827,58.293434 
	C94.614098,64.098541 97.681557,64.903976 103.019478,62.185593 
	C106.473495,60.426605 108.174301,57.715942 108.163086,53.790676 
	C108.156540,51.496784 107.892387,48.851833 108.903976,46.997562 
	C110.116631,44.774734 112.362930,42.089031 114.534683,41.703087 
	C116.735298,41.312012 120.686699,42.832108 121.602150,44.654793 
	C124.235077,49.897022 128.756317,50.982216 133.597076,52.425854 
	C163.407913,61.316223 178.854828,91.466164 168.524765,121.724396 
	C167.743088,123.173332 167.451965,124.179497 167.160858,125.185654 
	C167.160858,125.185654 167.147308,125.057373 166.822937,125.078812 
	C162.286118,128.943771 158.345490,133.147186 153.814774,136.569366 
	C132.700546,152.517578 104.042938,152.930740 82.386612,136.934128 
	C78.484505,134.051804 74.641228,131.089890 70.770782,128.164719 
	C70.770782,128.164719 70.852386,128.054443 70.884018,127.791412 
	C70.554993,127.031807 70.194344,126.535233 69.833702,126.038658 
	C69.833702,126.038658 69.932068,126.044235 69.931114,125.765793 
	C69.574982,124.995949 69.219803,124.504532 68.864624,124.013123 
M131.487579,138.305283 
	C141.805588,133.386658 146.689987,124.717834 144.791672,114.693169 
	C143.002090,105.242645 134.874451,98.679428 123.884323,97.951309 
	C120.402702,97.720650 116.901657,97.784096 113.409538,97.710930 
	C110.106277,97.641724 106.662598,97.420792 106.567612,93.049652 
	C106.470169,88.565567 109.733215,87.807762 113.401657,87.731499 
	C118.215309,87.631416 123.094383,87.845726 127.822609,87.122543 
	C135.205124,85.993393 139.274750,80.042725 138.509186,71.737007 
	C131.958054,71.737007 125.332016,71.682335 118.707436,71.757446 
	C114.718002,71.802673 110.675079,71.683182 106.753830,72.279640 
	C97.449318,73.694969 90.284515,82.534111 90.288361,92.085716 
	C90.292786,103.073204 96.617569,111.555481 106.463165,112.964050 
	C112.026428,113.759972 117.718750,113.686821 123.356583,113.915459 
	C126.535622,114.044373 129.007050,114.937759 129.068970,118.655159 
	C129.132904,122.492302 126.723160,123.925636 123.312408,124.040565 
	C119.987427,124.152603 116.655975,124.075584 113.327370,124.076439 
	C105.923752,124.078339 98.520126,124.077026 91.150398,124.077026 
	C91.018852,132.929916 95.445595,139.043457 103.463867,139.475754 
	C112.520439,139.964035 121.656807,138.972366 131.487579,138.305283 
z"/>
<path fill="#1391CE" opacity="1.000000" stroke="none" 
	d="
M70.839142,128.510406 
	C74.641228,131.089890 78.484505,134.051804 82.386612,136.934128 
	C104.042938,152.930740 132.700546,152.517578 153.814774,136.569366 
	C158.345490,133.147186 162.286118,128.943771 166.863556,125.128906 
	C159.842651,142.912231 146.220169,153.289932 127.746841,156.825623 
	C104.512100,161.272614 81.792191,149.704865 70.839142,128.510406 
z"/>
<path fill="#302B2D" opacity="1.000000" stroke="none" 
	d="
M143.621964,185.245483 
	C144.474808,187.402954 145.327560,189.094330 146.180298,190.785706 
	C147.064835,189.111465 148.206406,187.519089 148.772034,185.743256 
	C149.567169,183.246796 147.056549,179.156998 152.892319,178.712585 
	C152.892319,182.152847 153.209396,185.419800 152.813400,188.597916 
	C152.298874,192.727463 149.770538,194.747025 145.384552,194.378204 
	C141.227585,194.028641 139.583466,191.746384 139.617630,187.836029 
	C139.632095,186.180740 139.748352,184.512619 139.589554,182.872467 
	C139.266541,179.535736 140.674347,178.695953 143.621872,179.734863 
	C143.621872,181.468658 143.621872,183.124023 143.621964,185.245483 
z"/>
<path fill="#302D2E" opacity="1.000000" stroke="none" 
	d="
M96.800240,192.070343 
	C95.963722,192.973282 94.229820,194.161270 94.095787,194.002090 
	C90.642830,189.901428 87.240036,192.050018 83.961555,194.355774 
	C82.241119,189.134705 86.850449,179.979813 91.611839,178.945984 
	C93.277634,183.173462 94.962982,187.450562 96.800240,192.070343 
z"/>
<path fill="#2E2B2C" opacity="1.000000" stroke="none" 
	d="
M67.960327,193.955109 
	C66.800919,192.674500 66.003113,191.495880 65.205307,190.317261 
	C66.577003,190.432724 67.948540,190.631821 69.320442,190.634262 
	C70.235802,190.635895 71.151665,190.357452 72.708008,190.097229 
	C70.099365,186.388962 62.102570,186.372742 66.231384,180.256271 
	C68.615944,176.723785 72.374069,178.138428 75.967918,181.615402 
	C73.243454,181.892853 71.336906,182.087006 68.864456,182.338791 
	C71.292389,185.576477 77.860062,185.062332 75.938759,190.849899 
	C74.701553,194.576736 71.606972,194.747696 67.960327,193.955109 
z"/>
<path fill="#2C2729" opacity="1.000000" stroke="none" 
	d="
M108.640045,185.321320 
	C109.658165,182.373154 109.469749,178.796982 114.763931,179.327255 
	C112.981972,184.140442 111.431549,188.696747 109.471893,193.069641 
	C109.268784,193.522888 105.605995,193.357407 105.293556,192.677307 
	C103.399818,188.555145 102.013023,184.200119 100.238800,179.323578 
	C107.050362,178.998688 104.859360,185.339859 107.656555,187.461823 
	C107.943886,186.851273 108.223579,186.256958 108.640045,185.321320 
z"/>
<path fill="#2B2628" opacity="1.000000" stroke="none" 
	d="
M168.934219,179.221039 
	C169.915527,181.058380 172.045013,183.278366 171.592010,184.637726 
	C171.005280,186.398376 168.471039,188.396988 166.573929,188.626083 
	C163.728241,188.969727 163.996979,190.385986 163.575714,192.590729 
	C162.105927,193.003403 161.097580,193.011490 160.089233,193.019592 
	C160.026794,188.977646 159.964355,184.935684 160.422943,180.465973 
	C163.607361,179.765808 166.270798,179.493423 168.934219,179.221039 
z"/>
<path fill="#292325" opacity="1.000000" stroke="none" 
	d="
M128.212128,182.139740 
	C126.782028,182.930969 125.781654,183.721100 124.781288,184.511246 
	C125.057411,184.875732 125.333534,185.240219 125.609657,185.604706 
	C127.415565,185.849747 129.221466,186.094772 131.027374,186.339813 
	C131.035080,186.762863 131.042786,187.185898 131.050491,187.608948 
	C129.248978,187.826859 127.447464,188.044769 125.290855,188.305634 
	C125.400543,189.343094 125.510712,190.385086 125.616859,191.389069 
	C128.307251,191.583847 131.740463,188.618393 133.209442,193.833618 
	C129.033569,193.833618 125.304665,193.833618 121.329926,193.833618 
	C121.329926,189.024353 121.329926,184.266602 121.329926,179.732422 
	C124.856880,179.732422 128.418839,179.732422 131.980789,179.732422 
	C132.072830,180.117844 132.164871,180.503250 132.256927,180.888672 
	C131.051895,181.305313 129.846878,181.721970 128.212128,182.139740 
z"/>
<path fill="#15DAFD" opacity="1.000000" stroke="none" 
	d="
M94.814026,46.833870 
	C97.231529,46.997974 101.306778,46.448723 101.744080,47.464947 
	C102.885246,50.116863 103.370621,53.884964 102.240013,56.345097 
	C101.632072,57.667953 97.161469,57.215660 94.507179,57.059082 
	C94.658409,53.313839 94.736221,50.073856 94.814026,46.833870 
z"/>
<path fill="#16E3FC" opacity="1.000000" stroke="none" 
	d="
M63.001846,76.046181 
	C67.351685,75.582390 69.522842,77.905014 69.876175,81.904564 
	C70.237244,85.991615 67.824348,87.969093 62.431747,87.835121 
	C62.558949,83.516029 62.780396,79.781105 63.001846,76.046181 
z"/>
<path fill="#11C4FB" opacity="1.000000" stroke="none" 
	d="
M62.632057,76.014328 
	C62.780396,79.781105 62.558949,83.516029 62.178211,87.631546 
	C60.379967,86.083908 57.803944,84.361496 57.324535,82.178612 
	C56.628109,79.007584 58.957527,76.754738 62.632057,76.014328 
z"/>
<path fill="#18CDFB" opacity="1.000000" stroke="none" 
	d="
M66.969803,45.825550 
	C68.059097,47.145832 69.776627,49.054474 69.362923,49.838455 
	C68.625565,51.235752 66.679222,52.486378 65.078720,52.724468 
	C64.307152,52.839241 63.172256,50.511520 62.201889,49.289795 
	C63.680534,48.162262 65.159180,47.034729 66.969803,45.825550 
z"/>
<path fill="#1BDCFD" opacity="1.000000" stroke="none" 
	d="
M114.803032,27.432602 
	C114.505363,29.907623 113.951332,32.139668 113.397308,34.371712 
	C112.058685,33.789066 109.999130,33.529987 109.557037,32.544960 
	C108.953064,31.199259 108.984505,28.766985 109.854538,27.796724 
	C110.652222,26.907156 112.924255,27.339653 114.803032,27.432602 
z"/>
<path fill="#05BCFC" opacity="1.000000" stroke="none" 
	d="
M94.462219,46.971161 
	C94.736221,50.073856 94.658409,53.313839 94.284409,56.790443 
	C90.118568,53.672688 91.084435,50.377880 94.462219,46.971161 
z"/>
<path fill="#000000" opacity="1.000000" stroke="none" 
	d="
M168.516785,179.070801 
	C166.270798,179.493423 163.607361,179.765808 160.516571,180.009460 
	C162.759262,179.627335 165.429291,179.273956 168.516785,179.070801 
z"/>
<path fill="#1391CE" opacity="1.000000" stroke="none" 
	d="
M167.434875,125.042618 
	C167.451965,124.179497 167.743088,123.173332 168.361023,122.080643 
	C168.361526,122.962608 168.035202,123.931099 167.434875,125.042618 
z"/>
<path fill="#000000" opacity="1.000000" stroke="none" 
	d="
M160.142044,193.389313 
	C161.097580,193.011490 162.105927,193.003403 163.492340,193.011505 
	C162.645203,193.271484 161.420044,193.515259 160.142044,193.389313 
z"/>
<path fill="#1391CE" opacity="1.000000" stroke="none" 
	d="
M69.843048,126.359283 
	C70.194344,126.535233 70.554993,127.031807 70.875557,127.859482 
	C70.507782,127.687027 70.180092,127.183464 69.843048,126.359283 
z"/>
<path fill="#1391CE" opacity="1.000000" stroke="none" 
	d="
M68.893692,124.326553 
	C69.219803,124.504532 69.574982,124.995949 69.915924,125.812653 
	C69.575378,125.638626 69.249077,125.139297 68.893692,124.326553 
z"/>
<path fill="#FBFEFE" opacity="1.000000" stroke="none" 
	d="
M131.123016,138.464783 
	C121.656807,138.972366 112.520439,139.964035 103.463867,139.475754 
	C95.445595,139.043457 91.018852,132.929916 91.150398,124.077026 
	C98.520126,124.077026 105.923752,124.078339 113.327370,124.076439 
	C116.655975,124.075584 119.987427,124.152603 123.312408,124.040565 
	C126.723160,123.925636 129.132904,122.492302 129.068970,118.655159 
	C129.007050,114.937759 126.535622,114.044373 123.356583,113.915459 
	C117.718750,113.686821 112.026428,113.759972 106.463165,112.964050 
	C96.617569,111.555481 90.292786,103.073204 90.288361,92.085716 
	C90.284515,82.534111 97.449318,73.694969 106.753830,72.279640 
	C110.675079,71.683182 114.718002,71.802673 118.707436,71.757446 
	C125.332016,71.682335 131.958054,71.737007 138.509186,71.737007 
	C139.274750,80.042725 135.205124,85.993393 127.822609,87.122543 
	C123.094383,87.845726 118.215309,87.631416 113.401657,87.731499 
	C109.733215,87.807762 106.470169,88.565567 106.567612,93.049652 
	C106.662598,97.420792 110.106277,97.641724 113.409538,97.710930 
	C116.901657,97.784096 120.402702,97.720650 123.884323,97.951309 
	C134.874451,98.679428 143.002090,105.242645 144.791672,114.693169 
	C146.689987,124.717834 141.805588,133.386658 131.123016,138.464783 
z"/>
</svg>